<mxfile host="app.diagrams.net" modified="2021-11-09T11:47:19.766Z" agent="5.0 (Windows NT 10.0; Win64; x64) AppleWebKit/537.36 (KHTML, like Gecko) Chrome/95.0.4638.69 Safari/537.36" etag="loYYiXfeSTWLyvqEaeE9" version="15.2.9" type="github">
  <diagram id="OVJdUXc2gE046eg2aZ6k" name="Main">
    <mxGraphModel dx="1550" dy="709" grid="1" gridSize="10" guides="1" tooltips="1" connect="1" arrows="1" fold="1" page="1" pageScale="1" pageWidth="827" pageHeight="1169" math="0" shadow="0">
      <root>
        <mxCell id="0" />
        <mxCell id="1" parent="0" />
        <mxCell id="B8F30-z_JnXLxpBusLho-5" value="" style="endArrow=none;dashed=1;html=1;dashPattern=1 3;strokeWidth=2;entryX=0;entryY=0.25;entryDx=0;entryDy=0;" edge="1" parent="1" target="Ypnxiq1GV2et3-A1cIZ6-55">
          <mxGeometry width="50" height="50" relative="1" as="geometry">
            <mxPoint x="150" y="200" as="sourcePoint" />
            <mxPoint x="440" y="470" as="targetPoint" />
          </mxGeometry>
        </mxCell>
        <mxCell id="0RaUzkHTqkIKFrn9YJ9X-1" value="&lt;a href=&quot;https://www.studeraihelsingfors.fi/&quot;&gt;Hem&lt;/a&gt;" style="rounded=1;whiteSpace=wrap;html=1;strokeWidth=1;" parent="1" vertex="1">
          <mxGeometry x="300" width="120" height="60" as="geometry" />
        </mxCell>
        <mxCell id="0RaUzkHTqkIKFrn9YJ9X-2" value="Varför just Helsingfors?" style="rounded=1;whiteSpace=wrap;html=1;strokeWidth=1;" parent="1" vertex="1">
          <mxGeometry y="100" width="120" height="60" as="geometry" />
        </mxCell>
        <mxCell id="0RaUzkHTqkIKFrn9YJ9X-3" value="Hitta din utbildning" style="rounded=1;whiteSpace=wrap;html=1;strokeWidth=1;" parent="1" vertex="1">
          <mxGeometry x="180" y="100" width="120" height="60" as="geometry" />
        </mxCell>
        <mxCell id="0RaUzkHTqkIKFrn9YJ9X-5" value="Under studietiden" style="rounded=1;whiteSpace=wrap;html=1;strokeWidth=1;" parent="1" vertex="1">
          <mxGeometry x="340" y="100" width="120" height="60" as="geometry" />
        </mxCell>
        <mxCell id="0RaUzkHTqkIKFrn9YJ9X-6" value="Om oss" style="rounded=1;whiteSpace=wrap;html=1;strokeWidth=1;" parent="1" vertex="1">
          <mxGeometry x="530" y="100" width="120" height="60" as="geometry" />
        </mxCell>
        <mxCell id="0RaUzkHTqkIKFrn9YJ9X-7" value="Högskoledagen &lt;br&gt;2021 online" style="rounded=1;whiteSpace=wrap;html=1;strokeWidth=1;" parent="1" vertex="1">
          <mxGeometry x="690" y="100" width="120" height="60" as="geometry" />
        </mxCell>
        <mxCell id="0RaUzkHTqkIKFrn9YJ9X-8" value="&lt;a href=&quot;https://github.com/Romuruotsalainen/StuderaiHelsingfors/blob/main/Fem anledningar att studera i Helsingfors&quot;&gt;Fem anledningar att studera i Helsingfors&lt;/a&gt;" style="rounded=1;whiteSpace=wrap;html=1;strokeWidth=1;" parent="1" vertex="1">
          <mxGeometry x="30" y="170" width="120" height="60" as="geometry" />
        </mxCell>
        <mxCell id="0RaUzkHTqkIKFrn9YJ9X-9" value="" style="endArrow=none;html=1;exitX=0.5;exitY=0;exitDx=0;exitDy=0;strokeWidth=1;" parent="1" source="0RaUzkHTqkIKFrn9YJ9X-2" edge="1">
          <mxGeometry width="50" height="50" relative="1" as="geometry">
            <mxPoint x="310" y="160" as="sourcePoint" />
            <mxPoint x="110" y="80" as="targetPoint" />
            <Array as="points">
              <mxPoint x="60" y="80" />
            </Array>
          </mxGeometry>
        </mxCell>
        <mxCell id="0RaUzkHTqkIKFrn9YJ9X-10" value="" style="endArrow=none;html=1;strokeWidth=1;" parent="1" edge="1">
          <mxGeometry width="50" height="50" relative="1" as="geometry">
            <mxPoint x="110" y="80" as="sourcePoint" />
            <mxPoint x="660" y="80" as="targetPoint" />
          </mxGeometry>
        </mxCell>
        <mxCell id="0RaUzkHTqkIKFrn9YJ9X-11" value="" style="endArrow=none;html=1;entryX=0.5;entryY=1;entryDx=0;entryDy=0;strokeWidth=1;" parent="1" target="0RaUzkHTqkIKFrn9YJ9X-1" edge="1">
          <mxGeometry width="50" height="50" relative="1" as="geometry">
            <mxPoint x="360" y="100" as="sourcePoint" />
            <mxPoint x="360" y="110" as="targetPoint" />
          </mxGeometry>
        </mxCell>
        <mxCell id="0RaUzkHTqkIKFrn9YJ9X-13" value="" style="endArrow=none;html=1;strokeWidth=1;" parent="1" source="0RaUzkHTqkIKFrn9YJ9X-6" edge="1">
          <mxGeometry width="50" height="50" relative="1" as="geometry">
            <mxPoint x="540" y="160" as="sourcePoint" />
            <mxPoint x="590" y="80" as="targetPoint" />
          </mxGeometry>
        </mxCell>
        <mxCell id="0RaUzkHTqkIKFrn9YJ9X-15" value="" style="endArrow=none;html=1;exitX=0.5;exitY=0;exitDx=0;exitDy=0;strokeWidth=1;" parent="1" source="0RaUzkHTqkIKFrn9YJ9X-3" edge="1">
          <mxGeometry width="50" height="50" relative="1" as="geometry">
            <mxPoint x="350" y="160" as="sourcePoint" />
            <mxPoint x="240" y="80" as="targetPoint" />
          </mxGeometry>
        </mxCell>
        <mxCell id="0RaUzkHTqkIKFrn9YJ9X-16" value="" style="endArrow=none;html=1;entryX=0.094;entryY=1;entryDx=0;entryDy=0;entryPerimeter=0;strokeWidth=1;" parent="1" target="0RaUzkHTqkIKFrn9YJ9X-2" edge="1">
          <mxGeometry width="50" height="50" relative="1" as="geometry">
            <mxPoint x="11" y="360" as="sourcePoint" />
            <mxPoint x="80" y="150" as="targetPoint" />
            <Array as="points">
              <mxPoint x="11" y="210" />
            </Array>
          </mxGeometry>
        </mxCell>
        <mxCell id="0RaUzkHTqkIKFrn9YJ9X-17" value="&lt;a href=&quot;https://www.studeraihelsingfors.fi/hogskolor/&quot;&gt;Högskolorna&lt;/a&gt;" style="rounded=1;whiteSpace=wrap;html=1;strokeWidth=1;" parent="1" vertex="1">
          <mxGeometry x="200" y="170" width="120" height="60" as="geometry" />
        </mxCell>
        <mxCell id="0RaUzkHTqkIKFrn9YJ9X-18" value="&lt;a href=&quot;https://www.studeraihelsingfors.fi/kandidatutbildningar/&quot;&gt;Kandidatutbildningar&lt;/a&gt;" style="rounded=1;whiteSpace=wrap;html=1;strokeWidth=1;" parent="1" vertex="1">
          <mxGeometry x="200" y="240" width="120" height="60" as="geometry" />
        </mxCell>
        <mxCell id="0RaUzkHTqkIKFrn9YJ9X-19" value="&lt;a href=&quot;https://www.studeraihelsingfors.fi/vara-studenter-berattar/&quot;&gt;Studerande i Helsingfors berättar&lt;/a&gt;" style="rounded=1;whiteSpace=wrap;html=1;strokeWidth=1;" parent="1" vertex="1">
          <mxGeometry x="30" y="260" width="120" height="60" as="geometry" />
        </mxCell>
        <mxCell id="0RaUzkHTqkIKFrn9YJ9X-20" value="&lt;a href=&quot;https://www.studeraihelsingfors.fi/studera-i-finland/&quot;&gt;Studera i Finland&lt;/a&gt;" style="rounded=1;whiteSpace=wrap;html=1;strokeWidth=1;" parent="1" vertex="1">
          <mxGeometry x="30" y="330" width="120" height="60" as="geometry" />
        </mxCell>
        <mxCell id="0RaUzkHTqkIKFrn9YJ9X-22" value="" style="endArrow=none;html=1;strokeWidth=1;" parent="1" edge="1">
          <mxGeometry width="50" height="50" relative="1" as="geometry">
            <mxPoint x="10" y="199.5" as="sourcePoint" />
            <mxPoint x="30" y="200" as="targetPoint" />
          </mxGeometry>
        </mxCell>
        <mxCell id="0RaUzkHTqkIKFrn9YJ9X-23" value="" style="endArrow=none;html=1;strokeWidth=1;" parent="1" edge="1">
          <mxGeometry width="50" height="50" relative="1" as="geometry">
            <mxPoint x="10" y="289.5" as="sourcePoint" />
            <mxPoint x="30" y="290" as="targetPoint" />
          </mxGeometry>
        </mxCell>
        <mxCell id="0RaUzkHTqkIKFrn9YJ9X-24" value="" style="endArrow=none;html=1;strokeWidth=1;" parent="1" edge="1">
          <mxGeometry width="50" height="50" relative="1" as="geometry">
            <mxPoint x="10" y="359.5" as="sourcePoint" />
            <mxPoint x="30" y="360" as="targetPoint" />
          </mxGeometry>
        </mxCell>
        <mxCell id="Ypnxiq1GV2et3-A1cIZ6-3" value="&lt;a href=&quot;https://www.studeraihelsingfors.fi/hur-soker-jag/&quot;&gt;Hur söker jag in?&lt;/a&gt;" style="rounded=1;whiteSpace=wrap;html=1;strokeWidth=1;" parent="1" vertex="1">
          <mxGeometry x="200" y="450" width="120" height="60" as="geometry" />
        </mxCell>
        <mxCell id="Ypnxiq1GV2et3-A1cIZ6-5" value="&lt;a href=&quot;https://www.studeraihelsingfors.fi/hur-valjer-jag/&quot;&gt;Hur väljer jag rätt?&lt;/a&gt;" style="rounded=1;whiteSpace=wrap;html=1;strokeWidth=1;" parent="1" vertex="1">
          <mxGeometry x="200" y="380" width="120" height="60" as="geometry" />
        </mxCell>
        <mxCell id="Ypnxiq1GV2et3-A1cIZ6-6" value="&lt;a href=&quot;https://www.studeraihelsingfors.fi/utbildningar-pa-magisterniva/&quot;&gt;Magisterutbildningar&lt;/a&gt;" style="rounded=1;whiteSpace=wrap;html=1;strokeWidth=1;" parent="1" vertex="1">
          <mxGeometry x="200" y="310" width="120" height="60" as="geometry" />
        </mxCell>
        <mxCell id="Ypnxiq1GV2et3-A1cIZ6-8" value="" style="shape=partialRectangle;whiteSpace=wrap;html=1;bottom=0;right=0;fillColor=none;direction=north;strokeWidth=1;" parent="1" vertex="1">
          <mxGeometry x="190" y="160" width="10" height="390" as="geometry" />
        </mxCell>
        <mxCell id="Ypnxiq1GV2et3-A1cIZ6-14" value="" style="shape=partialRectangle;whiteSpace=wrap;html=1;bottom=0;right=0;fillColor=none;direction=north;strokeWidth=1;" parent="1" vertex="1">
          <mxGeometry x="360" y="160" width="10" height="40" as="geometry" />
        </mxCell>
        <mxCell id="Ypnxiq1GV2et3-A1cIZ6-15" value="" style="shape=partialRectangle;whiteSpace=wrap;html=1;bottom=0;right=0;fillColor=none;direction=north;strokeWidth=1;" parent="1" vertex="1">
          <mxGeometry x="190" y="290" width="10" height="120" as="geometry" />
        </mxCell>
        <mxCell id="Ypnxiq1GV2et3-A1cIZ6-16" value="" style="shape=partialRectangle;whiteSpace=wrap;html=1;bottom=0;right=0;fillColor=none;direction=north;strokeWidth=1;" parent="1" vertex="1">
          <mxGeometry x="190" y="230" width="10" height="110" as="geometry" />
        </mxCell>
        <mxCell id="Ypnxiq1GV2et3-A1cIZ6-17" value="" style="shape=partialRectangle;whiteSpace=wrap;html=1;bottom=0;right=0;fillColor=none;direction=north;strokeWidth=1;" parent="1" vertex="1">
          <mxGeometry x="190" y="160" width="10" height="110" as="geometry" />
        </mxCell>
        <mxCell id="Ypnxiq1GV2et3-A1cIZ6-18" value="" style="shape=partialRectangle;whiteSpace=wrap;html=1;bottom=0;right=0;fillColor=none;direction=north;strokeWidth=1;" parent="1" vertex="1">
          <mxGeometry x="190" y="160" width="10" height="40" as="geometry" />
        </mxCell>
        <mxCell id="Ypnxiq1GV2et3-A1cIZ6-19" value="" style="shape=partialRectangle;whiteSpace=wrap;html=1;bottom=0;right=0;fillColor=none;direction=north;strokeWidth=1;" parent="1" vertex="1">
          <mxGeometry x="190" y="430" width="10" height="120" as="geometry" />
        </mxCell>
        <mxCell id="Ypnxiq1GV2et3-A1cIZ6-20" value="" style="shape=partialRectangle;whiteSpace=wrap;html=1;bottom=0;right=0;fillColor=none;direction=north;strokeWidth=1;" parent="1" vertex="1">
          <mxGeometry x="190" y="360" width="10" height="120" as="geometry" />
        </mxCell>
        <mxCell id="Ypnxiq1GV2et3-A1cIZ6-21" value="&lt;a href=&quot;https://www.studeraihelsingfors.fi/vagledning/&quot;&gt;Vägledning&lt;/a&gt;" style="rounded=1;whiteSpace=wrap;html=1;strokeWidth=1;" parent="1" vertex="1">
          <mxGeometry x="200" y="520" width="120" height="60" as="geometry" />
        </mxCell>
        <mxCell id="Ypnxiq1GV2et3-A1cIZ6-23" value="&lt;a href=&quot;https://www.studeraihelsingfors.fi/helsingfors/vanliga-fragor-om-ansokan/&quot;&gt;Om ansökan&lt;/a&gt;" style="rounded=1;whiteSpace=wrap;html=1;strokeWidth=1;" parent="1" vertex="1">
          <mxGeometry x="200" y="590" width="120" height="60" as="geometry" />
        </mxCell>
        <mxCell id="Ypnxiq1GV2et3-A1cIZ6-24" value="" style="shape=partialRectangle;whiteSpace=wrap;html=1;bottom=0;right=0;fillColor=none;direction=north;strokeWidth=1;" parent="1" vertex="1">
          <mxGeometry x="190" y="500" width="10" height="120" as="geometry" />
        </mxCell>
        <mxCell id="Ypnxiq1GV2et3-A1cIZ6-27" value="Hälsa och &lt;br&gt;välmående" style="rounded=1;whiteSpace=wrap;html=1;strokeWidth=1;" parent="1" vertex="1">
          <mxGeometry x="370" y="310" width="120" height="60" as="geometry" />
        </mxCell>
        <mxCell id="Ypnxiq1GV2et3-A1cIZ6-28" value="&lt;a href=&quot;https://www.studeraihelsingfors.fi/helsingfors/hitta-bostad-i-helsingfors/&quot;&gt;Om boende&lt;/a&gt;" style="rounded=1;whiteSpace=wrap;html=1;strokeWidth=1;" parent="1" vertex="1">
          <mxGeometry x="370" y="170" width="120" height="60" as="geometry" />
        </mxCell>
        <mxCell id="Ypnxiq1GV2et3-A1cIZ6-30" value="&lt;a href=&quot;https://www.studeraihelsingfors.fi/sprakalliansen-tips-om-vetenskapligt-skrivande/&quot;&gt;Vetenskapligt skrivande&lt;/a&gt;" style="rounded=1;whiteSpace=wrap;html=1;strokeWidth=1;" parent="1" vertex="1">
          <mxGeometry x="370" y="590" width="120" height="60" as="geometry" />
        </mxCell>
        <mxCell id="Ypnxiq1GV2et3-A1cIZ6-31" value="&lt;a href=&quot;https://www.studeraihelsingfors.fi/studiefragor-studiearenden/&quot;&gt;Studiefrågor och studieärenden&lt;/a&gt;" style="rounded=1;whiteSpace=wrap;html=1;strokeWidth=1;" parent="1" vertex="1">
          <mxGeometry x="370" y="380" width="120" height="60" as="geometry" />
        </mxCell>
        <mxCell id="Ypnxiq1GV2et3-A1cIZ6-32" value="&lt;a href=&quot;https://www.studeraihelsingfors.fi/studentforeningar/&quot;&gt;Studentföreningar&lt;/a&gt;" style="rounded=1;whiteSpace=wrap;html=1;strokeWidth=1;" parent="1" vertex="1">
          <mxGeometry x="370" y="520" width="120" height="60" as="geometry" />
        </mxCell>
        <mxCell id="Ypnxiq1GV2et3-A1cIZ6-33" value="&lt;a href=&quot;https://www.studeraihelsingfors.fi/sprakstod-och-sprakfragor/&quot;&gt;Språkstöd och språkfrågor&lt;/a&gt;" style="rounded=1;whiteSpace=wrap;html=1;strokeWidth=1;" parent="1" vertex="1">
          <mxGeometry x="370" y="450" width="120" height="60" as="geometry" />
        </mxCell>
        <mxCell id="Ypnxiq1GV2et3-A1cIZ6-35" value="&lt;a href=&quot;https://www.studeraihelsingfors.fi/helsingfors/studentekonomi-och-karriar/&quot;&gt;Studentekonomi och karriär&lt;/a&gt;" style="rounded=1;whiteSpace=wrap;html=1;strokeWidth=1;" parent="1" vertex="1">
          <mxGeometry x="370" y="240" width="120" height="60" as="geometry" />
        </mxCell>
        <mxCell id="Ypnxiq1GV2et3-A1cIZ6-36" value="" style="shape=partialRectangle;whiteSpace=wrap;html=1;bottom=0;right=0;fillColor=none;direction=north;strokeWidth=1;" parent="1" vertex="1">
          <mxGeometry x="360" y="160" width="10" height="40" as="geometry" />
        </mxCell>
        <mxCell id="Ypnxiq1GV2et3-A1cIZ6-37" value="" style="shape=partialRectangle;whiteSpace=wrap;html=1;bottom=0;right=0;fillColor=none;direction=north;strokeWidth=1;" parent="1" vertex="1">
          <mxGeometry x="360" y="200" width="10" height="70" as="geometry" />
        </mxCell>
        <mxCell id="Ypnxiq1GV2et3-A1cIZ6-38" value="" style="shape=partialRectangle;whiteSpace=wrap;html=1;bottom=0;right=0;fillColor=none;direction=north;strokeWidth=1;" parent="1" vertex="1">
          <mxGeometry x="360" y="410" width="10" height="70" as="geometry" />
        </mxCell>
        <mxCell id="Ypnxiq1GV2et3-A1cIZ6-39" value="" style="shape=partialRectangle;whiteSpace=wrap;html=1;bottom=0;right=0;fillColor=none;direction=north;strokeWidth=1;" parent="1" vertex="1">
          <mxGeometry x="360" y="690" width="10" height="70" as="geometry" />
        </mxCell>
        <mxCell id="Ypnxiq1GV2et3-A1cIZ6-40" value="" style="shape=partialRectangle;whiteSpace=wrap;html=1;bottom=0;right=0;fillColor=none;direction=north;strokeWidth=1;" parent="1" vertex="1">
          <mxGeometry x="360" y="550" width="10" height="70" as="geometry" />
        </mxCell>
        <mxCell id="Ypnxiq1GV2et3-A1cIZ6-41" value="" style="shape=partialRectangle;whiteSpace=wrap;html=1;bottom=0;right=0;fillColor=none;direction=north;strokeWidth=1;" parent="1" vertex="1">
          <mxGeometry x="360" y="620" width="10" height="70" as="geometry" />
        </mxCell>
        <mxCell id="Ypnxiq1GV2et3-A1cIZ6-42" value="" style="shape=partialRectangle;whiteSpace=wrap;html=1;bottom=0;right=0;fillColor=none;direction=north;strokeWidth=1;" parent="1" vertex="1">
          <mxGeometry x="360" y="480" width="10" height="70" as="geometry" />
        </mxCell>
        <mxCell id="Ypnxiq1GV2et3-A1cIZ6-43" value="" style="shape=partialRectangle;whiteSpace=wrap;html=1;bottom=0;right=0;fillColor=none;direction=north;strokeWidth=1;" parent="1" vertex="1">
          <mxGeometry x="360" y="270" width="10" height="70" as="geometry" />
        </mxCell>
        <mxCell id="Ypnxiq1GV2et3-A1cIZ6-45" value="" style="shape=partialRectangle;whiteSpace=wrap;html=1;bottom=0;right=0;fillColor=none;direction=north;strokeWidth=1;" parent="1" vertex="1">
          <mxGeometry x="360" y="340" width="10" height="70" as="geometry" />
        </mxCell>
        <mxCell id="Ypnxiq1GV2et3-A1cIZ6-54" value="&lt;a href=&quot;https://www.studeraihelsingfors.fi/om-helsingforsalliansen/&quot;&gt;Info&lt;/a&gt;" style="rounded=1;whiteSpace=wrap;html=1;strokeWidth=1;" parent="1" vertex="1">
          <mxGeometry x="550" y="170" width="120" height="60" as="geometry" />
        </mxCell>
        <mxCell id="Ypnxiq1GV2et3-A1cIZ6-55" value="&lt;a href=&quot;https://www.studeraihelsingfors.fi/helsingfors/studieliv-och-fritid/&quot;&gt;Om studieliv och fritid&lt;/a&gt;" style="rounded=1;whiteSpace=wrap;html=1;strokeWidth=1;" parent="1" vertex="1">
          <mxGeometry x="370" y="740" width="120" height="60" as="geometry" />
        </mxCell>
        <mxCell id="Ypnxiq1GV2et3-A1cIZ6-56" value="&lt;a href=&quot;https://www.studeraihelsingfors.fi/helsingfors/fragor-om-att-studera/&quot;&gt;Om att studera&lt;/a&gt;" style="rounded=1;whiteSpace=wrap;html=1;strokeWidth=1;" parent="1" vertex="1">
          <mxGeometry x="370" y="660" width="120" height="60" as="geometry" />
        </mxCell>
        <mxCell id="Ypnxiq1GV2et3-A1cIZ6-57" value="&lt;a href=&quot;https://www.studeraihelsingfors.fi/stall-en-fraga/&quot;&gt;Kontakta oss&lt;/a&gt;" style="rounded=1;whiteSpace=wrap;html=1;strokeWidth=1;" parent="1" vertex="1">
          <mxGeometry x="550" y="240" width="120" height="60" as="geometry" />
        </mxCell>
        <mxCell id="Ypnxiq1GV2et3-A1cIZ6-62" value="" style="shape=partialRectangle;whiteSpace=wrap;html=1;bottom=0;right=0;fillColor=none;direction=north;strokeWidth=1;" parent="1" vertex="1">
          <mxGeometry x="540" y="160" width="10" height="40" as="geometry" />
        </mxCell>
        <mxCell id="Ypnxiq1GV2et3-A1cIZ6-63" value="" style="shape=partialRectangle;whiteSpace=wrap;html=1;bottom=0;right=0;fillColor=none;direction=north;strokeWidth=1;" parent="1" vertex="1">
          <mxGeometry x="540" y="200" width="10" height="70" as="geometry" />
        </mxCell>
        <mxCell id="R4bJIenhDc7q_7y7zcjB-1" value="" style="endArrow=none;html=1;entryX=0.5;entryY=0;entryDx=0;entryDy=0;" parent="1" edge="1" target="0RaUzkHTqkIKFrn9YJ9X-7">
          <mxGeometry width="50" height="50" relative="1" as="geometry">
            <mxPoint x="660" y="80" as="sourcePoint" />
            <mxPoint x="660" y="100" as="targetPoint" />
            <Array as="points">
              <mxPoint x="750" y="80" />
            </Array>
          </mxGeometry>
        </mxCell>
        <mxCell id="B8F30-z_JnXLxpBusLho-1" value="" style="endArrow=none;dashed=1;html=1;dashPattern=1 3;strokeWidth=2;entryX=0.25;entryY=1;entryDx=0;entryDy=0;" edge="1" parent="1" target="Ypnxiq1GV2et3-A1cIZ6-18">
          <mxGeometry width="50" height="50" relative="1" as="geometry">
            <mxPoint x="152" y="200" as="sourcePoint" />
            <mxPoint x="440" y="340" as="targetPoint" />
          </mxGeometry>
        </mxCell>
        <mxCell id="B8F30-z_JnXLxpBusLho-3" value="" style="endArrow=none;dashed=1;html=1;dashPattern=1 3;strokeWidth=2;exitX=1;exitY=0.5;exitDx=0;exitDy=0;entryX=0;entryY=0.25;entryDx=0;entryDy=0;" edge="1" parent="1" source="0RaUzkHTqkIKFrn9YJ9X-8" target="0RaUzkHTqkIKFrn9YJ9X-18">
          <mxGeometry width="50" height="50" relative="1" as="geometry">
            <mxPoint x="390" y="390" as="sourcePoint" />
            <mxPoint x="440" y="340" as="targetPoint" />
          </mxGeometry>
        </mxCell>
        <mxCell id="B8F30-z_JnXLxpBusLho-4" value="" style="endArrow=none;dashed=1;html=1;dashPattern=1 3;strokeWidth=2;entryX=0.095;entryY=1.04;entryDx=0;entryDy=0;entryPerimeter=0;" edge="1" parent="1" target="Ypnxiq1GV2et3-A1cIZ6-16">
          <mxGeometry width="50" height="50" relative="1" as="geometry">
            <mxPoint x="150" y="200" as="sourcePoint" />
            <mxPoint x="110" y="460" as="targetPoint" />
          </mxGeometry>
        </mxCell>
        <mxCell id="B8F30-z_JnXLxpBusLho-6" value="" style="endArrow=none;dashed=1;html=1;dashPattern=1 3;strokeWidth=2;exitX=0.5;exitY=1;exitDx=0;exitDy=0;entryX=0.5;entryY=0;entryDx=0;entryDy=0;" edge="1" parent="1" source="0RaUzkHTqkIKFrn9YJ9X-8" target="0RaUzkHTqkIKFrn9YJ9X-19">
          <mxGeometry width="50" height="50" relative="1" as="geometry">
            <mxPoint x="390" y="390" as="sourcePoint" />
            <mxPoint x="440" y="340" as="targetPoint" />
          </mxGeometry>
        </mxCell>
      </root>
    </mxGraphModel>
  </diagram>
</mxfile>
